<?xml version="1.0" encoding="UTF-8" standalone="no"?><!DOCTYPE svg PUBLIC "-//W3C//DTD SVG 1.1//EN" "http://www.w3.org/Graphics/SVG/1.1/DTD/svg11.dtd"><!-- Generated by graphviz version 2.40.1 (20161225.0304)
 --><!-- Title: %0 Pages: 1 --><svg xmlns="http://www.w3.org/2000/svg" xmlns:xlink="http://www.w3.org/1999/xlink" width="720pt" height="98pt" viewBox="0.00 0.00 720.49 98.00">
<g id="graph0" class="graph" transform="scale(1 1) rotate(0) translate(4 94)">
<title>%0</title>
<polygon fill="#ffffff" stroke="transparent" points="-4,4 -4,-94 716.487,-94 716.487,4 -4,4"/>
<!-- producer -->
<g id="node1" class="node">
<title>producer</title>
<polygon fill="none" stroke="#000000" points="148.9307,-63 .0231,-63 .0231,-27 148.9307,-27 148.9307,-63"/>
<text text-anchor="middle" x="74.4769" y="-40.8" font-family="Times,serif" font-size="14.00" fill="#000000">Bookstore Web Service</text>
</g>
<!-- queue -->
<g id="node4" class="node">
<title>queue</title>
<polygon fill="#000080" stroke="#000000" points="408.2384,-81 292.9674,-81 292.9674,-9 408.2384,-9 408.2384,-81"/>
<text text-anchor="middle" x="350.6029" y="-49.2" font-family="Times,serif" font-size="14.00" fill="#ffffff">Queue</text>
<text text-anchor="middle" x="350.6029" y="-32.4" font-family="Times,serif" font-size="14.00" fill="#ffffff">(Events Queuing)</text>
</g>
<!-- producer&#45;&gt;queue -->
<g id="edge1" class="edge">
<title>producer-&gt;queue</title>
<path fill="none" stroke="#000000" d="M149.2006,-45C190.8696,-45 242.3663,-45 282.8562,-45"/>
<polygon fill="#000000" stroke="#000000" points="282.9005,-48.5001 292.9004,-45 282.9004,-41.5001 282.9005,-48.5001"/>
<text text-anchor="middle" x="220.9945" y="-49.2" font-family="Times,serif" font-size="14.00" fill="#000000">Search Book Event</text>
</g>
<!-- consumer1 -->
<g id="node2" class="node">
<title>consumer1</title>
<polygon fill="none" stroke="#000000" points="679.7749,-90 584.9641,-90 584.9641,-54 679.7749,-54 679.7749,-90"/>
<text text-anchor="middle" x="632.3695" y="-67.8" font-family="Times,serif" font-size="14.00" fill="#000000">Trend Service</text>
</g>
<!-- consumer2 -->
<g id="node3" class="node">
<title>consumer2</title>
<polygon fill="none" stroke="#000000" points="712.6047,-36 552.1343,-36 552.1343,0 712.6047,0 712.6047,-36"/>
<text text-anchor="middle" x="632.3695" y="-13.8" font-family="Times,serif" font-size="14.00" fill="#000000">Recommendation Service</text>
</g>
<!-- queue&#45;&gt;consumer1 -->
<g id="edge2" class="edge">
<title>queue-&gt;consumer1</title>
<path fill="none" stroke="#000000" d="M408.3025,-50.529C456.8537,-55.1814 525.9395,-61.8015 574.53,-66.4576"/>
<polygon fill="#000000" stroke="#000000" points="574.2846,-69.95 584.5729,-67.4199 574.9524,-62.9819 574.2846,-69.95"/>
<text text-anchor="middle" x="480.2113" y="-66.2" font-family="Times,serif" font-size="14.00" fill="#000000">Search Book Event</text>
</g>
<!-- queue&#45;&gt;consumer2 -->
<g id="edge3" class="edge">
<title>queue-&gt;consumer2</title>
<path fill="none" stroke="#000000" d="M408.2797,-34.6257C414.3091,-33.7224 420.3567,-32.8909 426.1706,-32.2 463.9522,-27.7104 505.8099,-24.5039 541.8857,-22.2878"/>
<polygon fill="#000000" stroke="#000000" points="542.1264,-25.7797 551.8995,-21.6887 541.7083,-18.7922 542.1264,-25.7797"/>
<text text-anchor="middle" x="480.2113" y="-37.2" font-family="Times,serif" font-size="14.00" fill="#000000">Search Book Event</text>
</g>
</g>
</svg>